HIERARCHY
ROOT Hips
{
  OFFSET 0.000000 0.000000 0.000000
  CHANNELS 6 Xposition Yposition Zposition Xrotation Yrotation Zrotation
  JOINT Spine
  {
    OFFSET 1.091648 -16.236955 -10.761358
    CHANNELS 3 Xrotation Yrotation Zrotation
    JOINT Chest
    {
      OFFSET 1.091648 -16.236955 -10.761358
      CHANNELS 3 Xrotation Yrotation Zrotation
      JOINT Neck
      {
        OFFSET 0.890352 -15.536897 -10.252686
        CHANNELS 3 Xrotation Yrotation Zrotation
        JOINT Head
        {
          OFFSET 1.195817 5.044793 -9.980132
          CHANNELS 3 Xrotation Yrotation Zrotation
          End Site
          {
            OFFSET 0.0 5.0 2.0
          }
        }
      }
      JOINT LeftShoulder
      {
        OFFSET 18.551902 0.686580 2.379349
        CHANNELS 3 Xrotation Yrotation Zrotation
        JOINT LeftArm
        {
          OFFSET 4.489639 14.616960 -7.136664
          CHANNELS 3 Xrotation Yrotation Zrotation
          JOINT LeftForeArm
          {
            OFFSET -11.787307 -5.085832 -20.740247
            CHANNELS 3 Xrotation Yrotation Zrotation
            JOINT LeftHand
            {
              OFFSET -5.000000 0.000000 0.000000
              CHANNELS 3 Xrotation Yrotation Zrotation
              End Site
              {
                OFFSET -3.0 0.0 2.0
              }
            }
          }
        }
      }
      JOINT RightShoulder
      {
        OFFSET -18.551902 -0.686580 -2.379349
        CHANNELS 3 Xrotation Yrotation Zrotation
        JOINT RightArm
        {
          OFFSET -4.570216 17.997882 -4.752058
          CHANNELS 3 Xrotation Yrotation Zrotation
          JOINT RightForeArm
          {
            OFFSET 11.171408 -1.711033 -16.578603
            CHANNELS 3 Xrotation Yrotation Zrotation
            JOINT RightHand
            {
              OFFSET 5.000000 0.000000 0.000000
              CHANNELS 3 Xrotation Yrotation Zrotation
              End Site
              {
                OFFSET 3.0 0.0 2.0
              }
            }
          }
        }
      }
    }
  }
  JOINT LeftUpLeg
  {
    OFFSET 12.221265 -0.127217 0.530709
    CHANNELS 3 Xrotation Yrotation Zrotation
    JOINT LeftLeg
    {
      OFFSET 15.450203 4.395018 -26.396204
      CHANNELS 3 Xrotation Yrotation Zrotation
      JOINT LeftFoot
      {
        OFFSET -14.961074 20.357352 18.976368
        CHANNELS 3 Xrotation Yrotation Zrotation
        JOINT LeftToeBase
        {
          OFFSET 0.647871 9.602728 -2.983394
          CHANNELS 3 Xrotation Yrotation Zrotation
          End Site
          {
            OFFSET 0.0 -1.0 3.0
          }
        }
      }
    }
  }
  JOINT RightUpLeg
  {
    OFFSET -12.221265 0.127217 -0.530709
    CHANNELS 3 Xrotation Yrotation Zrotation
    JOINT RightLeg
    {
      OFFSET -17.783329 14.206535 -27.554162
      CHANNELS 3 Xrotation Yrotation Zrotation
      JOINT RightFoot
      {
        OFFSET 21.291015 11.329868 27.532883
        CHANNELS 3 Xrotation Yrotation Zrotation
        JOINT RightToeBase
        {
          OFFSET 2.829073 8.974311 -0.113827
          CHANNELS 3 Xrotation Yrotation Zrotation
          End Site
          {
            OFFSET 0.0 -1.0 3.0
          }
        }
      }
    }
  }
}
MOTION
Frames: 9
Frame Time: 0.066667
0.000000 0.000000 0.000000 0.000000 0.000000 0.000000 0.000000 0.000000 0.000000 0.000000 0.000000 0.000000 0.000000 0.000000 0.000000 0.000000 0.000000 0.000000 0.000000 0.000000 0.000000 0.000000 0.000000 0.000000 -10.567538 -27.937061 40.789541 0.000000 0.000000 0.000000 0.000000 0.000000 0.000000 0.000000 0.000000 0.000000 -5.243529 15.063323 -38.205368 0.000000 0.000000 0.000000 0.000000 0.000000 0.000000 0.000000 0.000000 0.000000 34.383824 -2.181979 -0.675172 0.000000 0.000000 0.000000 0.000000 0.000000 0.000000 0.000000 0.000000 0.000000 0.000000 0.000000 0.000000 0.000000 0.000000 0.000000
0.000000 0.000000 0.000000 -0.003981 0.003271 0.092519 -0.862546 -0.776499 1.103216 0.030737 -0.590491 -0.066737 -2.758192 -1.101678 -0.851527 0.000000 0.000000 0.000000 1.591201 -1.021660 -1.144614 -0.803108 -1.794335 0.902550 -10.878704 -26.655407 43.794757 0.000000 0.000000 0.000000 -1.394561 -0.881011 -1.883866 -2.796931 -2.578886 -1.583813 -4.983460 13.529972 -40.290678 0.000000 0.000000 0.000000 3.708316 -3.437224 1.522380 -4.321354 -4.876635 2.170684 41.605079 -2.476084 -2.382177 0.000000 0.000000 0.000000 0.720235 6.579639 3.096860 -3.671192 6.652881 -0.121388 -4.500239 1.443089 0.412097 0.000000 0.000000 0.000000
0.000000 0.000000 0.000000 -0.002814 -0.267446 0.000672 -7.019627 -1.352112 1.555915 0.108148 -0.938994 -0.538599 -2.238432 -1.866346 -1.165989 0.000000 0.000000 0.000000 1.711657 -0.411550 0.235545 -5.115655 0.491937 2.803708 -6.892077 -16.655381 44.722858 0.000000 0.000000 0.000000 -1.160781 -0.797448 -1.813921 -7.056705 -5.812002 -3.961313 -0.280619 0.758692 -40.595530 0.000000 0.000000 0.000000 3.145092 -4.959954 0.905822 -8.870241 -9.071532 4.036750 49.079004 -3.169381 0.609943 0.000000 0.000000 0.000000 1.977035 11.617110 5.328984 -3.125059 12.498140 -3.415220 7.608371 -1.677558 -12.325568 0.000000 0.000000 0.000000
0.000000 0.000000 0.000000 -0.002636 -1.149804 -0.174558 -8.590829 -1.441182 1.592120 0.065539 -0.734582 -0.285160 -2.961527 -1.097947 -0.871157 0.000000 0.000000 0.000000 2.577230 -0.347152 0.948239 -6.557064 -0.228146 3.847933 -5.745315 -14.305393 43.589521 0.000000 0.000000 0.000000 -0.655695 -0.888142 -2.650430 -9.430189 -6.017241 -5.487563 -1.732583 4.802075 -39.660148 0.000000 0.000000 0.000000 5.004635 -8.030283 1.303392 -6.345763 -6.315836 2.368183 53.944638 -3.304196 -0.533759 0.000000 0.000000 0.000000 9.106876 22.677697 9.366959 -2.906118 22.131446 -8.979034 -0.790475 -0.408887 -34.564880 0.000000 0.000000 0.000000
0.000000 0.000000 0.000000 -0.047476 -1.147181 0.665309 -8.765117 -1.545888 1.766807 0.028889 -0.737472 -0.012024 -2.311348 -0.400532 -0.466799 0.000000 0.000000 0.000000 0.260528 0.238378 0.654858 -5.311021 -3.541485 4.026966 -9.774893 -23.694819 44.354151 0.000000 0.000000 0.000000 -2.452770 -1.302082 -2.329838 -9.985087 -2.319541 -6.442732 -2.797425 7.975865 -38.604516 0.000000 0.000000 0.000000 8.827742 -6.397433 3.787947 2.735580 -11.679494 15.201896 28.319205 0.425764 39.452860 0.000000 0.000000 0.000000 9.488619 25.016628 11.118135 -1.319542 23.701741 -10.952562 8.620084 -0.501087 -33.666156 0.000000 0.000000 0.000000
0.000000 0.000000 0.000000 -0.088806 -0.926018 1.537305 -10.473818 -1.634351 1.802179 -0.127390 1.136666 0.719900 0.501561 -0.335017 -0.110999 0.000000 0.000000 0.000000 1.517030 0.160038 1.318860 -4.472977 -3.924752 3.622475 -10.700132 -25.009227 45.784840 0.000000 0.000000 0.000000 -2.609879 -1.201081 -1.834394 -9.231801 -1.068402 -6.121488 -3.242808 9.387695 -38.043337 0.000000 0.000000 0.000000 10.807469 -5.106714 5.225647 10.260259 -13.877249 21.553526 22.140662 5.211450 54.999024 0.000000 0.000000 0.000000 9.357220 25.833058 11.871031 0.650489 23.636538 -12.129863 14.104821 -0.800918 -31.560102 0.000000 0.000000 0.000000
0.000000 0.000000 0.000000 -0.095445 -0.688054 1.786070 -16.524847 -1.997468 2.074132 -0.154295 1.389284 0.884176 1.059010 -0.239104 0.003840 0.000000 0.000000 0.000000 2.940295 -0.226980 1.457786 -4.053429 -4.170489 3.433126 -10.423117 -23.851106 46.716168 0.000000 0.000000 0.000000 -1.611065 -0.634624 -0.798370 -7.657011 -1.031810 -5.054124 -2.681009 8.106689 -36.548924 0.000000 0.000000 0.000000 9.003601 -4.916356 4.234507 5.797388 -18.152213 24.692526 13.301677 12.875537 63.491643 0.000000 0.000000 0.000000 5.611703 24.151690 12.165640 -3.939512 26.460250 -11.115107 4.767007 -0.391795 -35.817718 0.000000 0.000000 0.000000
0.000000 0.000000 0.000000 -0.097258 -0.179713 2.119514 -16.491548 -2.127568 2.352924 -0.254535 1.918766 1.641985 -1.148957 0.333322 0.027326 0.000000 0.000000 0.000000 1.806347 0.439799 2.106881 -4.217908 -3.641899 3.394077 -10.375855 -23.990111 46.277599 0.000000 0.000000 0.000000 -3.251150 -0.639579 0.650011 -5.816057 -1.177861 -3.785795 -2.251686 8.327751 -30.212963 0.000000 0.000000 0.000000 8.233176 -0.355089 4.806196 7.902172 -18.244039 25.640274 26.394943 5.164347 78.044655 0.000000 0.000000 0.000000 4.550360 23.052983 11.797903 -4.520431 26.354502 -10.684881 2.861534 -0.346889 -40.182469 0.000000 0.000000 0.000000
0.000000 0.000000 0.000000 -0.118501 -0.247871 2.542012 -15.039999 -2.093754 2.379434 -0.299822 1.355250 2.142024 -0.471649 0.269919 0.078630 0.000000 0.000000 0.000000 2.213261 1.291958 4.198219 -4.712603 -5.568212 4.200002 -12.678705 -27.317754 49.136062 0.000000 0.000000 0.000000 -1.429690 -0.160246 0.734435 -5.080694 -1.346856 -3.267037 -3.415848 11.724403 -32.388060 0.000000 0.000000 0.000000 8.355268 -1.864383 4.548846 5.886959 -17.262423 23.616446 32.242498 -0.804085 58.486742 0.000000 0.000000 0.000000 3.218311 23.354617 12.621168 -6.436692 26.487034 -9.578752 7.315900 -0.299520 -37.227361 0.000000 0.000000 0.000000
